<?xml version="1.0" standalone="no"?>
<!DOCTYPE svg PUBLIC "-//W3C//DTD SVG 20010904//EN"
 "http://www.w3.org/TR/2001/REC-SVG-20010904/DTD/svg10.dtd">
<svg version="1.0" xmlns="http://www.w3.org/2000/svg"
 width="700.000000pt" height="700.000000pt" viewBox="0 0 700.000000 700.000000"
 preserveAspectRatio="xMidYMid meet">
<metadata>
Created by potrace 1.11, written by Peter Selinger 2001-2013
</metadata>
<g transform="translate(0.000000,700.000000) scale(0.100000,-0.100000)"
fill="#000000" stroke="none">
<path d="M2200 6105 c-42 -109 -303 -775 -310 -790 -5 -11 -55 -137 -110 -280
-56 -143 -105 -269 -110 -280 -5 -11 -60 -148 -121 -305 -61 -157 -117 -298
-123 -315 -16 -37 -95 -237 -182 -460 -36 -93 -108 -276 -159 -405 -50 -129
-145 -370 -209 -535 -65 -165 -123 -313 -131 -330 -34 -79 -63 -72 278 -71
l304 0 28 75 c15 42 34 90 40 106 7 17 20 53 30 80 9 28 21 59 25 70 9 19 144
381 177 475 9 25 21 51 26 58 7 9 185 12 829 12 646 0 819 -3 823 -12 7 -24
286 -763 307 -814 l20 -51 303 0 303 1 -14 40 c-18 51 -111 290 -129 331 -7
17 -36 89 -64 160 -91 236 -241 620 -250 640 -5 11 -33 81 -61 155 -29 74 -58
149 -65 165 -7 17 -34 84 -59 150 -26 66 -79 201 -118 300 -38 99 -74 189 -79
200 -7 17 -104 264 -233 592 -212 541 -408 1038 -414 1047 -5 9 -82 12 -276
12 -259 -1 -269 -2 -276 -21z m378 -968 c51 -138 97 -261 102 -272 5 -11 25
-65 45 -120 20 -55 47 -127 60 -160 13 -33 60 -159 105 -280 45 -121 88 -234
96 -252 8 -17 14 -34 14 -38 0 -5 15 -47 34 -94 18 -47 37 -96 40 -108 l7 -23
-600 0 c-331 0 -601 3 -601 8 0 4 41 115 90 247 50 132 134 355 187 495 52
140 108 289 123 330 31 86 154 414 179 477 9 24 18 43 21 43 3 0 47 -114 98
-253z"/>
<path d="M5116 2440 l-1180 -1180 -533 536 c-294 295 -536 535 -538 533 -42
-39 -405 -404 -405 -408 0 -3 333 -339 741 -746 l740 -739 1379 1382 c759 760
1381 1385 1382 1388 3 4 -263 275 -374 381 l-33 32 -1179 -1179z"/>
</g>
</svg>
